<?xml version="1.0" encoding="utf-8"?>
<!-- Generator: Adobe Illustrator 16.0.0, SVG Export Plug-In . SVG Version: 6.00 Build 0)  -->
<!DOCTYPE svg PUBLIC "-//W3C//DTD SVG 1.1//EN" "http://www.w3.org/Graphics/SVG/1.1/DTD/svg11.dtd">
<svg version="1.1" id="Layer_1" xmlns="http://www.w3.org/2000/svg" xmlns:xlink="http://www.w3.org/1999/xlink" x="0px" y="0px"
	 width="612px" height="792px" viewBox="0 0 612 792" enable-background="new 0 0 612 792" xml:space="preserve">
<g>
	<path fill="#CCCCCC" d="M81.545,12.282c0,0-19.737,28.174-21.352,30.414c-2.188,2.969-6.354,3.125-8.645,0
		c-1.562-2.188-14.478-20.362-14.478-20.362c-0.677-0.99-0.625-2.292,0.208-3.021c1.823-1.562,3.802-2.916,5.937-4.114
		c0.938-0.469,2.188-0.104,2.864,0.885l9.791,13.749L72.588,6.084c0.678-0.99,1.928-1.354,2.865-0.833
		c2.082,1.146,4.061,2.448,5.885,4.062C82.17,9.99,82.223,11.292,81.545,12.282z"/>
</g>
<g>
	<path fill="#FFFFFF" d="M86.545,12.282c0,0-19.737,28.174-21.352,30.414c-2.188,2.969-6.354,3.125-8.645,0
		c-1.562-2.188-14.478-20.362-14.478-20.362c-0.677-0.99-0.625-2.292,0.208-3.021c1.823-1.562,3.802-2.916,5.937-4.114
		c0.938-0.469,2.188-0.104,2.864,0.885l9.791,13.749L77.588,6.084c0.678-0.99,1.928-1.354,2.865-0.833
		c2.082,1.146,4.061,2.448,5.885,4.062C87.17,9.99,87.223,11.292,86.545,12.282z"/>
</g>
<g>
	<path fill="#CCCCCC" d="M91.545,12.282c0,0-19.737,28.174-21.352,30.414c-2.188,2.969-6.354,3.125-8.645,0
		c-1.562-2.188-14.478-20.362-14.478-20.362c-0.677-0.99-0.625-2.292,0.208-3.021c1.823-1.562,3.802-2.916,5.937-4.114
		c0.938-0.469,2.188-0.104,2.864,0.885l9.791,13.749L82.588,6.084c0.678-0.99,1.928-1.354,2.865-0.833
		c2.082,1.146,4.061,2.448,5.885,4.062C92.17,9.99,92.223,11.292,91.545,12.282z"/>
</g>
<g>
	<path fill="#CDCCCC" d="M44.874,62.577c0,0-19.737,28.174-21.353,30.414c-2.188,2.969-6.354,3.125-8.645,0
		C13.314,90.803,0.398,72.629,0.398,72.629c-0.677-0.99-0.625-2.292,0.208-3.021c1.823-1.562,3.802-2.916,5.938-4.114
		c0.938-0.469,2.188-0.104,2.864,0.885l9.791,13.749L35.916,56.38c0.678-0.99,1.928-1.354,2.864-0.833
		c2.082,1.146,4.062,2.448,5.886,4.062C45.499,60.286,45.551,61.588,44.874,62.577z"/>
</g>
<g>
	<path fill="#FFFFFF" d="M49.874,62.577c0,0-19.737,28.174-21.353,30.414c-2.188,2.969-6.354,3.125-8.645,0
		C18.314,90.803,5.398,72.629,5.398,72.629c-0.677-0.99-0.625-2.292,0.208-3.021c1.823-1.562,3.802-2.916,5.938-4.114
		c0.938-0.469,2.188-0.104,2.864,0.885l9.791,13.749L40.916,56.38c0.678-0.99,1.928-1.354,2.864-0.833
		c2.082,1.146,4.062,2.448,5.886,4.062C50.499,60.286,50.551,61.588,49.874,62.577z"/>
</g>
<g>
	<path fill="#CDCCCC" d="M54.874,62.577c0,0-19.737,28.174-21.353,30.414c-2.188,2.969-6.354,3.125-8.645,0
		c-1.562-2.188-14.479-20.362-14.479-20.362c-0.677-0.99-0.625-2.292,0.208-3.021c1.823-1.562,3.802-2.916,5.938-4.114
		c0.938-0.469,2.188-0.104,2.864,0.885l9.791,13.749L45.916,56.38c0.678-0.99,1.928-1.354,2.864-0.833
		c2.082,1.146,4.062,2.448,5.886,4.062C55.499,60.286,55.551,61.588,54.874,62.577z"/>
</g>
<g>
	<path fill="#FFFFFF" d="M59.874,62.577c0,0-19.737,28.174-21.353,30.414c-2.188,2.969-6.354,3.125-8.645,0
		c-1.562-2.188-14.479-20.362-14.479-20.362c-0.677-0.99-0.625-2.292,0.208-3.021c1.823-1.562,3.802-2.916,5.938-4.114
		c0.938-0.469,2.188-0.104,2.863,0.885l9.791,13.749L50.916,56.38c0.678-0.99,1.928-1.354,2.864-0.833
		c2.082,1.146,4.062,2.448,5.886,4.062C60.499,60.286,60.551,61.588,59.874,62.577z"/>
</g>
<g>
	<path fill="#CDCCCC" d="M64.874,62.577c0,0-19.737,28.174-21.353,30.414c-2.188,2.969-6.354,3.125-8.645,0
		c-1.562-2.188-14.479-20.362-14.479-20.362c-0.677-0.99-0.625-2.292,0.208-3.021c1.823-1.562,3.803-2.916,5.938-4.114
		c0.938-0.469,2.188-0.104,2.863,0.885l9.791,13.749L55.916,56.38c0.678-0.99,1.928-1.354,2.864-0.833
		c2.082,1.146,4.062,2.448,5.886,4.062C65.499,60.286,65.551,61.588,64.874,62.577z"/>
</g>
<g enable-background="new    ">
	<path fill="#CDCCCC" d="M116.581,27.706c-2.292,2.76-3.333,6.197-3.333,9.843c0,3.437,1.042,6.51,2.864,9.113h-1.823
		c-15.78,0-20.623-0.886-20.832-0.938c-0.469-0.052-0.885-0.364-1.146-0.729c-0.26-0.364-0.365-0.885-0.26-1.302
		c0.937-4.427,2.968-7.707,6.926-10.155c1.042-0.625,2.239-1.094,3.489-1.614c2.396-0.989,5.104-2.083,5.625-3.802
		c0.364-1.197-0.26-2.864-1.667-4.947c-4.271-6.822-5.052-12.655-2.292-17.342C106.321,2.188,110.228,0,114.498,0
		s8.229,2.188,10.363,5.833c0.469,0.833,0.886,1.771,1.146,2.708c1.094,3.489,0.312,7.551-1.406,10.728
		c-0.989,1.927-2.604,3.177-4.218,4.583C119.081,24.945,117.675,26.352,116.581,27.706z M116.998,37.496
		c0-6.926,5.573-12.499,12.499-12.499c6.875,0,12.499,5.573,12.499,12.499c0,6.927-5.624,12.499-12.499,12.499
		C122.57,49.995,116.998,44.423,116.998,37.496z M136.162,39.996c0.469,0,0.834-0.364,0.834-0.833V35.83
		c0-0.469-0.365-0.833-0.834-0.833H122.83c-0.469,0-0.833,0.364-0.833,0.833v3.333c0,0.469,0.364,0.833,0.833,0.833H136.162z"/>
</g>
<g>
	<path fill="#CDCCCC" d="M166.565,27.706c-2.292,2.76-3.333,6.197-3.333,9.842c0,3.438,1.042,6.51,2.864,9.114h-1.822
		c-15.78,0-20.623-0.886-20.832-0.938c-0.469-0.051-0.885-0.363-1.146-0.729c-0.26-0.364-0.365-0.885-0.26-1.301
		c0.938-4.428,2.968-7.709,6.926-10.156c1.042-0.625,2.239-1.094,3.489-1.613c2.396-0.99,5.104-2.084,5.625-3.803
		c0.364-1.197-0.261-2.864-1.667-4.947c-4.271-6.822-5.052-12.655-2.292-17.342C156.304,2.188,160.21,0,164.48,0
		c4.27,0,8.229,2.188,10.363,5.833c0.47,0.833,0.886,1.771,1.146,2.708c1.094,3.489,0.312,7.551-1.406,10.728
		c-0.99,1.927-2.604,3.177-4.219,4.583C169.064,24.945,167.659,26.351,166.565,27.706z M166.982,37.497
		c0-6.928,5.572-12.5,12.499-12.5c6.875,0,12.5,5.572,12.5,12.5c0,6.926-5.625,12.498-12.5,12.498
		C172.554,49.995,166.982,44.423,166.982,37.497z M181.146,44.995c0.469,0,0.834-0.364,0.834-0.832v-4.167h4.166
		c0.469,0,0.834-0.364,0.834-0.833v-3.334c0-0.468-0.365-0.832-0.834-0.832h-4.166v-4.166c0-0.469-0.365-0.834-0.834-0.834h-3.332
		c-0.469,0-0.834,0.365-0.834,0.834v4.166h-4.166c-0.469,0-0.832,0.364-0.832,0.832v3.334c0,0.469,0.363,0.833,0.832,0.833h4.166
		v4.167c0,0.468,0.365,0.832,0.834,0.832H181.146z"/>
</g>
<g>
	<path fill="#CDCCCC" d="M241.984,44.995c0,1.875-1.512,3.334-3.334,3.334h-43.329c-1.198,0-2.239-0.625-2.864-1.615
		c-0.625-0.988-0.625-2.238-0.052-3.281l21.664-40.047c0.573-1.042,1.667-1.719,2.917-1.719c1.197,0,2.344,0.677,2.917,1.719
		l21.457,39.684C241.722,43.589,241.984,44.267,241.984,44.995z M217.038,31.976c0.989,0,1.927-0.938,2.083-1.979
		c0.833-4.375,1.25-9.062,1.666-12.967c0.053-0.886-0.572-1.875-1.562-2.083c-1.717-0.312-2.708-0.312-4.425,0
		c-0.937,0.208-1.667,1.198-1.614,2.083c0.417,3.906,0.833,8.593,1.667,12.967c0.156,1.041,1.094,1.979,2.031,1.979H217.038z
		 M220.735,40.048c0-2.082-1.667-3.75-3.75-3.75s-3.75,1.668-3.75,3.75c0,2.084,1.667,3.75,3.75,3.75S220.735,42.132,220.735,40.048
		z"/>
</g>
<g>
	<path fill="#CDCCCC" d="M247.452,44.943c-4.53-4.478-5.468-9.321-5.468-12.552c0-4.217,1.614-8.383,4.322-11.092l8.437-8.28
		c1.979-2.031,4.739-3.021,7.499-3.021c2.864,0,5.729,1.094,7.916,3.229c2.188,2.187,3.49,5.104,3.49,8.176
		c0,2.812-0.99,5.363-2.917,7.291l-4.843,4.529c-1.302,1.304-3.437,1.25-4.687-0.104s-1.198-3.438,0.104-4.739l4.792-4.479
		c0.781-0.729,0.989-1.771,0.989-2.5c0.052-1.302-0.625-2.604-1.562-3.542c-1.615-1.667-4.427-1.771-5.989-0.208l-8.541,8.387
		c-1.094,1.146-2.396,3.386-2.396,6.354c0,1.979,0.677,4.947,3.542,7.812c5.416,5.416,11.562,2.761,13.697,0.625l16.715-16.717
		c1.771-1.771,2.812-4.427,2.763-7.031c-0.054-2.864-1.406-5.572-3.854-7.812c-4.687-4.271-9.271-2.5-11.146-1.354
		c-1.562,0.989-3.593,0.469-4.583-1.094c-0.938-1.562-0.469-3.593,1.094-4.583C269.118,0.833,272.136,0,275.315,0
		c3.75,0,7.5,1.302,10.676,4.322c4.74,4.531,5.938,9.322,5.99,12.603c0.104,4.479-1.615,8.8-4.688,11.875l-16.77,16.717
		c-2.76,2.812-6.874,4.479-11.197,4.479C255.264,49.995,250.994,48.485,247.452,44.943z"/>
</g>
<g>
	<path fill="#CDCCCC" d="M335.639,31.094c-1.25,0.677-8.957,2.344-16.561,3.488v9.635c0,0.886-0.416,1.719-1.197,2.136
		s-1.719,0.417-2.5-0.052c-11.925-7.5-22.393-19.166-22.809-19.687c-0.781-0.938-0.781-2.292,0-3.177
		c0.417-0.521,10.728-12.03,22.549-19.529c0.418-0.364,0.938-0.573,1.562-0.573c1.354,0,2.395,1.094,2.395,2.448v9.583
		c7.604,1.146,15.311,2.864,16.561,3.489c2.084,1.146,3.439,3.072,3.439,6.145C339.076,28.074,337.723,29.948,335.639,31.094z"/>
</g>
<g>
	<path fill="#CDCCCC" d="M374.968,34.89c0.885,0.834,1.041,2.137,0.363,2.916c-1.51,1.928-3.176,3.595-5.104,5.104
		c-0.781,0.676-2.082,0.521-2.97-0.312l-9.842-9.896l-9.896,9.896c-0.832,0.832-2.135,0.987-2.968,0.312
		c-1.875-1.511-3.542-3.178-5.052-5.053c-0.678-0.832-0.521-2.136,0.312-2.968l9.895-9.896l-9.842-9.841
		c-0.885-0.885-1.043-2.188-0.365-2.968c1.51-1.927,3.177-3.594,5.052-5.104c0.833-0.677,2.136-0.521,2.968,0.365l9.896,9.426
		l9.842-9.426c0.888-0.885,2.188-1.042,2.97-0.365c1.928,1.51,3.594,3.177,5.104,5.104c0.678,0.781,0.521,2.083-0.363,2.968
		l-9.844,9.843L374.968,34.89z"/>
</g>
<g>
	<path fill="#CDCCCC" d="M425.748,24.998c0,13.801-11.197,24.998-24.998,24.998s-24.998-11.197-24.998-24.998
		C375.752,11.198,386.949,0,400.75,0S425.748,11.198,425.748,24.998z M415.801,29.998c0.938,0,1.719-0.729,1.77-1.719
		c0.209-2.188,0.209-4.375,0-6.562c-0.051-0.99-0.832-1.719-1.77-1.719h-30.102c-0.938,0-1.719,0.729-1.823,1.719
		c-0.156,2.187-0.156,4.375,0,6.562c0.104,0.99,0.886,1.719,1.823,1.719H415.801z"/>
</g>
<g>
	<path fill="#CDCCCC" d="M475.744,5.833v28.331c0,1.613-1.146,2.969-2.762,3.28c-0.312,0.052-6.666,1.146-15.57,1.562v3.959
		l10.467,2.916c0.781,0.261,1.303,1.041,1.199,1.875c-0.156,0.781-0.834,1.406-1.668,1.406h-33.329c-0.833,0-1.51-0.625-1.667-1.406
		c-0.104-0.834,0.417-1.614,1.198-1.875l10.468-2.916v-3.959c-8.906-0.416-15.259-1.51-15.572-1.562
		c-1.613-0.313-2.76-1.667-2.76-3.28V5.833c0-1.615,1.198-3.021,2.76-3.281c0.417-0.052,10.416-1.719,22.237-1.719
		s21.769,1.667,22.187,1.719C474.545,2.812,475.744,4.219,475.744,5.833z M469.078,31.455V8.333
		c-3.699-0.468-10.678-1.198-18.333-1.198s-14.634,0.729-18.332,1.198v23.123c3.593,0.469,10.521,1.198,18.332,1.25
		C458.557,32.653,465.484,31.924,469.078,31.455z M451.891,27.394c-0.52-0.156-2.916-1.823-5.311-3.75l-1.303,3.229
		c-0.155,0.363-0.521,0.625-0.885,0.625h-0.052c-0.364,0-0.729-0.209-0.885-0.521s-3.697-7.187-4.375-13.384
		c-0.052-0.26,0.052-0.573,0.312-0.781c0.209-0.26,0.521-0.365,0.834-0.312c6.354,0.833,13.021,4.218,13.279,4.375
		c0.364,0.208,0.572,0.573,0.572,0.938c0,0.417-0.26,0.729-0.625,0.885l-3.333,1.406c1.875,2.343,3.593,4.843,3.801,5.26
		c0.312,0.677,0.156,1.146-0.364,1.667C453.037,27.549,452.672,27.602,451.891,27.394z"/>
</g>
<g>
	<path fill="#CDCCCC" d="M500.11,45.308c0.572,0.521,0.729,1.354,0.521,2.03c-0.209,0.729-0.834,1.304-1.562,1.459
		c-9.634,1.875-20.832,0.988-21.3,0.938c-0.47-0.053-0.886-0.262-1.198-0.574s-0.521-0.729-0.573-1.249
		c-0.053-0.417-0.938-11.614,0.938-21.248c0.155-0.78,0.677-1.354,1.405-1.562c0.729-0.26,1.511-0.052,2.084,0.469l5.052,5.104
		c3.696-2.656,8.02-5.261,9.374-5.573c1.25-0.312,2.707,0.156,4.166,1.614c1.457,1.459,1.927,2.865,1.615,4.166
		c-0.312,1.198-2.918,5.678-5.574,9.375L500.11,45.308z M524.534,23.331c-0.156,0.729-0.729,1.354-1.406,1.562
		c-0.729,0.208-1.562,0.052-2.082-0.521l-5.053-5.052c-3.697,2.656-8.02,5.208-9.373,5.573c-1.303,0.312-2.709-0.156-4.166-1.615
		c-1.459-1.458-1.928-2.916-1.615-4.166c0.312-1.198,2.916-5.677,5.572-9.374l-5.104-5.051c-0.521-0.573-0.729-1.354-0.469-2.083
		c0.207-0.729,0.78-1.25,1.562-1.406c9.635-1.875,20.832-0.989,21.301-0.938c0.47,0.052,0.886,0.261,1.197,0.573
		s0.521,0.729,0.571,1.198C525.524,2.499,526.409,13.697,524.534,23.331z"/>
</g>
<g>
	<path fill="#CDCCCC" d="M550.295,27.706c-2.292,2.76-3.333,6.197-3.333,9.842c0,3.438,1.042,6.51,2.863,9.114h-1.821
		c-15.78,0-20.623-0.886-20.832-0.938c-0.469-0.051-0.885-0.363-1.146-0.729c-0.261-0.364-0.365-0.885-0.261-1.301
		c0.938-4.428,2.968-7.709,6.927-10.156c1.041-0.625,2.238-1.094,3.488-1.613c2.396-0.99,5.104-2.084,5.625-3.803
		c0.364-1.197-0.261-2.864-1.667-4.947c-4.271-6.822-5.052-12.655-2.292-17.342C540.034,2.188,543.94,0,548.21,0
		s8.229,2.188,10.363,5.833c0.47,0.833,0.886,1.771,1.146,2.708c1.094,3.489,0.312,7.551-1.406,10.728
		c-0.99,1.927-2.604,3.177-4.219,4.583C552.794,24.945,551.389,26.351,550.295,27.706z M550.712,37.497
		c0-6.928,5.572-12.5,12.499-12.5c6.875,0,12.5,5.572,12.5,12.5c0,6.926-5.625,12.498-12.5,12.498
		C556.284,49.995,550.712,44.423,550.712,37.497z M567.95,44.058l1.979-1.979c0.312-0.364,0.312-0.885,0-1.25l-3.334-3.332
		l3.334-3.334c0.312-0.312,0.312-0.885,0-1.25l-1.979-1.979c-0.365-0.312-0.887-0.312-1.25,0l-3.334,3.334l-3.332-3.334
		c-0.312-0.312-0.887-0.312-1.25,0l-1.98,1.979c-0.312,0.365-0.312,0.938,0,1.25l3.334,3.334l-3.334,3.332
		c-0.312,0.365-0.312,0.886,0,1.25l1.98,1.979c0.363,0.312,0.885,0.312,1.25,0l3.332-3.332l3.334,3.332
		C567.063,44.37,567.585,44.37,567.95,44.058z"/>
</g>
<g>
	<path fill="#CDCCCC" d="M36.664,25.207c0,6.613-0.209,13.071-0.574,19.373c-0.156,2.396-1.979,4.375-4.322,4.688
		c-4.479,0.572-8.957,0.729-13.436,0.729s-9.01-0.156-13.488-0.729c-2.344-0.312-4.166-2.293-4.271-4.688
		C0.209,38.381,0,31.716,0,24.997c0-6.51,0.156-13.124,0.573-19.425C0.677,3.176,2.5,1.25,4.844,0.885
		C9.323,0.312,13.854,0,18.332,0s8.958,0.312,13.436,0.885c2.344,0.365,4.166,2.292,4.322,4.687
		C36.455,12.135,36.664,18.697,36.664,25.207z M30.205,22.343c-0.053-4.479-0.26-9.01-0.676-14.53
		c-0.053-0.417-0.312-0.729-0.73-0.781c-3.645-0.417-7.029-0.625-10.467-0.625S11.457,6.615,7.863,7.032
		c-0.416,0.052-0.729,0.364-0.78,0.781C6.719,13.229,6.51,18.281,6.51,23.437c0,4.062,0.104,8.125,0.365,12.5
		c0.052,0.416,0.363,0.729,0.781,0.729h21.353c0.416,0,0.729-0.312,0.729-0.729C30.049,30.832,30.205,26.56,30.205,22.343z
		 M21.82,43.33c0-1.875-1.613-3.385-3.489-3.385c-1.927,0-3.386,1.51-3.386,3.385c0,1.927,1.459,3.489,3.386,3.489
		C20.207,46.819,21.82,45.256,21.82,43.33z"/>
</g>
<g>
	<path fill="#CDCCCC" d="M115.405,74.992c0,13.801-11.197,24.998-24.998,24.998c-13.801,0-24.998-11.197-24.998-24.998
		c0-13.8,11.197-24.997,24.998-24.997C104.208,49.995,115.405,61.192,115.405,74.992z M94.051,89.991
		c0.938,0,1.666-0.729,1.666-1.667v-1.666c0-0.938-0.729-1.666-1.666-1.666l0.053-13.333c0-0.938-0.78-1.667-1.666-1.667h-5.676
		c-0.938,0-1.667,0.729-1.667,1.667v1.667c0,0.938,0.729,1.667,1.667,1.667v10c-0.938,0-1.667,0.729-1.667,1.666v1.666
		c0,0.938,0.729,1.667,1.667,1.667L94.051,89.991L94.051,89.991z M94.208,61.713c0-1.979-1.77-3.854-3.801-3.854
		s-3.802,1.875-3.802,3.854c0,2.031,1.771,3.75,3.802,3.75C92.438,65.462,94.208,63.743,94.208,61.713z"/>
</g>
<g>
	<path fill="#CDCCCC" d="M123.738,59.994c0,2.292-1.875,4.167-4.166,4.167c-2.292,0-4.167-1.875-4.167-4.167
		c0-2.291,1.875-4.166,4.167-4.166C121.863,55.828,123.738,57.703,123.738,59.994z M115.405,74.993c0-2.292,1.875-4.167,4.167-4.167
		c2.291,0,4.166,1.875,4.166,4.167s-1.875,4.167-4.166,4.167C117.28,79.16,115.405,77.285,115.405,74.993z M115.405,89.992
		c0-2.291,1.875-4.166,4.167-4.166c2.291,0,4.166,1.875,4.166,4.166s-1.875,4.166-4.166,4.166
		C117.28,94.158,115.405,92.283,115.405,89.992z M130.404,62.442v-4.895c0-0.938,0.729-1.719,1.614-1.719h29.424
		c1.094,0,2.031,0.729,2.135,1.719c0.209,2.187,0.209,2.708,0,4.895c-0.104,0.99-1.041,1.719-2.135,1.719h-29.424
		C131.237,64.161,130.404,63.484,130.404,62.442z M132.018,79.16c-0.781,0-1.614-0.678-1.614-1.719v-4.896
		c0-0.938,0.729-1.719,1.614-1.719h29.424c1.094,0,2.031,0.729,2.135,1.719c0.209,2.187,0.209,2.708,0,4.896
		c-0.104,0.988-1.041,1.719-2.135,1.719H132.018z M132.018,94.158c-0.781,0-1.614-0.678-1.614-1.719v-4.895
		c0-0.938,0.729-1.72,1.614-1.72h29.424c1.094,0,2.031,0.729,2.135,1.72c0.209,2.187,0.209,2.706,0,4.895
		c-0.104,0.99-1.041,1.719-2.135,1.719H132.018z"/>
</g>
<g>
	<path fill="#CDCCCC" d="M213.122,99.56c-0.469,0.469-0.938,0.729-1.562,0.729c-0.312,0-0.574-0.053-0.834-0.156
		c-5.781-2.031-11.77-4.01-17.707-5.938c-0.363-0.156-0.677-0.363-0.988-0.625l-27.55-27.705c-0.833-0.781-0.989-2.083-0.364-3.073
		c1.562-2.5,3.333-4.739,5.364-6.666c2.083-2.083,4.479-3.854,7.083-5.468c0.99-0.573,2.24-0.469,3.073,0.364l27.551,27.707
		c0.312,0.261,0.52,0.625,0.625,0.99c1.926,5.937,3.75,11.77,5.729,17.549C213.901,98.206,213.797,98.882,213.122,99.56z
		 M205.518,88.31c-0.781-2.291-1.562-4.582-2.293-6.875L177.5,55.396c-0.885,0.677-1.771,1.562-2.656,2.292l24.894,24.893
		c0.938,0.99,0.886,2.344-0.104,3.334c-0.469,0.469-0.938,0.729-1.562,0.729c-0.623,0-1.25-0.155-1.771-0.676l-24.999-25.051
		c-0.885,0.938-1.667,1.979-2.343,2.968l25.726,25.831c2.24,0.729,4.844,1.512,7.135,2.293L205.518,88.31z"/>
</g>
<g>
	<path fill="#CDCCCC" d="M215.463,93.013c-0.729-0.365-1.198-1.146-1.25-1.979c0-0.104-0.469-7.916-0.469-16.041
		c0-8.124,0.469-15.936,0.469-16.04c0.052-0.833,0.521-1.562,1.25-1.979s1.614-0.417,2.343,0
		c11.042,6.197,20.518,15.936,20.883,16.353c0.885,0.938,0.885,2.396,0,3.333c-0.365,0.417-9.844,10.155-20.883,16.354
		C217.077,93.429,216.192,93.429,215.463,93.013z"/>
</g>
<g>
	<path fill="#CDCCCC" d="M289.356,70.836c0,11.51-9.322,20.832-20.832,20.832c-3.072,0-6.042-0.678-8.645-1.875l-12.551,9.218
		c-2.187,1.667-5.312,1.198-6.979-1.042c-1.354-1.822-1.302-4.219,0-5.988l9.218-12.5c-1.198-2.604-1.875-5.571-1.875-8.644
		c0-11.51,9.322-20.832,20.832-20.832C280.034,50.005,289.356,59.327,289.356,70.836z M283.106,70.836
		c0-8.072-6.51-14.582-14.582-14.582s-14.582,6.51-14.582,14.582c0,8.072,6.51,14.582,14.582,14.582S283.106,78.908,283.106,70.836z
		"/>
</g>
<g>
	<path fill="#CDCCCC" d="M337.699,53.477c-0.051,0.781-0.781,19.321-5.26,40.256c-0.26,0.99-0.885,1.875-1.822,2.292
		c-0.469,0.261-0.99,0.364-1.459,0.364c-0.52,0-1.041-0.156-1.51-0.364l-10.885-5.521l-4.844,7.707
		c-0.572,1.094-1.717,1.771-2.863,1.771c-0.312,0-0.573-0.053-0.885-0.104c-1.458-0.365-2.135-1.771-2.135-3.281V86.235
		l16.665-19.113l-22.447,14.582l-9.062-4.01c-0.989-0.521-1.666-1.511-1.822-2.605c-0.104-1.146,0.365-2.239,1.198-2.968
		c18.696-15.259,41.82-21.717,42.808-21.977c1.041-0.312,2.188-0.104,3.021,0.573C337.283,51.342,337.752,52.436,337.699,53.477z"/>
</g>
<g>
	<path fill="#CDCCCC" d="M363.778,98.339c-12.863,0-23.174-10.469-23.174-23.332c0-2.812,0.312-5.521,1.25-8.072l-3.438-0.416
		c-0.573-0.104-1.042-0.521-1.146-1.094c-0.155-0.521,0.104-1.094,0.573-1.406c4.218-2.865,9.53-5.208,10.363-5.364
		c0.573-0.104,1.094,0.104,1.405,0.573c0.521,0.729,2.604,6.146,3.541,11.145c0.156,0.521-0.104,1.093-0.572,1.406
		c-0.26,0.156-0.521,0.208-0.729,0.208c-0.312,0-0.625-0.104-0.834-0.26l-2.969-2.292c-0.625,1.771-0.988,3.646-0.988,5.572
		c0,9.166,7.498,16.666,16.715,16.666c9.166,0,16.666-7.5,16.666-16.666s-7.5-16.665-16.666-16.665
		c-3.279,0-6.301,0.938-8.853,2.604l-2.188-6.458c3.281-1.771,7.031-2.812,11.041-2.812c12.863,0,23.332,10.468,23.332,23.331
		C387.11,87.87,376.642,98.339,363.778,98.339z M367.112,63.863l-0.416,10.52l3.697,7.603c0.416,0.99,0,2.137-0.99,2.554
		c-0.834,0.364-1.719,0.104-2.238-0.573l-6.042-7.343c-0.521-0.625-0.677-1.406-0.47-2.136v-0.052l2.709-11.197
		c0.26-0.99,1.303-1.615,2.344-1.302C366.591,62.144,367.165,62.977,367.112,63.863z"/>
</g>
<g>
	<path fill="#CDCCCC" d="M432.049,62.276c0,0-19.737,28.174-21.353,30.414c-2.188,2.969-6.354,3.125-8.646,0
		c-1.562-2.188-14.477-20.362-14.477-20.362c-0.677-0.99-0.625-2.292,0.208-3.021c1.823-1.562,3.802-2.916,5.937-4.114
		c0.938-0.469,2.188-0.104,2.865,0.885l9.791,13.749l16.717-23.748c0.678-0.99,1.928-1.354,2.865-0.833
		c2.082,1.146,4.061,2.448,5.885,4.062C432.674,59.985,432.727,61.288,432.049,62.276z"/>
</g>
<g>
	<path fill="#CDCCCC" d="M482.512,59.54v30.934c0,3.178-2.449,5.833-5.574,6.146c-6.354,0.572-13.07,0.886-19.424,0.886
		s-13.124-0.312-19.425-0.886c-3.177-0.313-5.573-2.971-5.573-6.146V59.54c0-3.177,2.396-5.833,5.572-6.146
		c6.302-0.573,13.072-0.885,19.425-0.885c6.354,0,13.071,0.312,19.424,0.885C480.062,53.707,482.512,56.363,482.512,59.54z
		 M470.846,90.733V59.279c-4.428-0.26-8.854-0.521-13.28-0.521c-6.146,0-12.291,0.364-18.384,0.938v30.622
		c6.093,0.574,12.238,0.938,18.384,0.938C461.992,91.255,466.418,90.995,470.846,90.733z M479.906,75.006
		c0-1.771-1.457-3.229-3.229-3.229c-1.77,0-3.229,1.458-3.229,3.229c0,1.771,1.459,3.229,3.229,3.229
		C478.449,78.235,479.906,76.776,479.906,75.006z"/>
</g>
<g>
	<path fill="#CDCCCC" d="M529.174,70.163c0,3.021-0.207,6.041-0.676,8.957c-0.574,3.803-4.844,7.24-8.594,7.656
		c-3.802,0.363-7.552,0.571-11.302,0.625l-9.946,9.635c-0.312,0.312-0.729,0.469-1.146,0.469c-0.26,0-0.469-0.053-0.678-0.104
		c-0.625-0.262-0.988-0.887-0.988-1.562v-8.541c-1.354-0.104-2.708-0.156-4.062-0.312c-3.75-0.416-8.02-4.062-8.645-7.863
		c-0.417-2.916-0.625-5.936-0.625-8.905c0-3.073,0.208-6.145,0.625-9.114c0.625-3.802,4.896-7.447,8.645-7.864
		c4.688-0.469,9.375-0.729,14.062-0.729c4.688,0,9.374,0.26,14.062,0.729c3.75,0.417,8.02,4.062,8.594,7.864
		C528.967,64.07,529.174,67.143,529.174,70.163z"/>
</g>
<g>
	<path fill="#CDCCCC" d="M559.172,88.183c0,1.094-0.73,2.084-1.822,2.396c-4.271,1.197-8.75,1.927-13.177,1.927
		s-8.854-0.729-13.124-1.927c-1.094-0.312-1.875-1.303-1.875-2.396V61.832c0-1.093,0.781-2.083,1.875-2.396
		c4.27-1.146,8.697-1.927,13.124-1.927s8.905,0.781,13.177,1.927c1.092,0.312,1.822,1.302,1.822,2.396V88.183z M573.076,88.652
		c-5.521-4.947-10.154-12.447-10.312-12.76c-0.364-0.521-0.364-1.25,0-1.771c0.156-0.312,4.791-7.499,10.312-12.395
		c0.469-0.469,1.197-0.573,1.875-0.312c0.572,0.26,0.885,0.885,0.885,1.615v24.32c0,0.679-0.312,1.304-0.885,1.562
		c-0.26,0.104-0.521,0.155-0.729,0.155C573.805,89.068,573.389,88.912,573.076,88.652z"/>
</g>
<g>
	<path fill="#CDCCCC" d="M32.104,126.408c0.312-0.416,0.781-0.676,1.355-0.676c0.312,0,0.885,0.312,0.885,0.312l11.561,5.832
		c0.574,0.312,0.938,0.885,0.938,1.562c-0.207,2.864-1.406,5.729-3.281,7.551c-2.135,2.137-5.153,3.179-8.592,3.179
		c-7.031,0-15.884-4.115-23.279-11.51C0.649,121.564-3.36,106.983,3.098,100.526c1.823-1.823,5-2.76,7.812-3.021
		c0.678,0,1.198,0.365,1.51,0.938l6.354,11.562c0.156,0.312,0.261,0.573,0.261,0.937c0,0.521-0.261,0.99-0.625,1.354l-4.947,4.896
		c-0.521,0.573-0.625,1.406-0.208,2.083c1.405,2.344,3.125,4.583,5.208,6.616c2.082,2.082,4.322,3.854,6.615,5.26
		c0.676,0.416,1.51,0.312,2.082-0.262L32.104,126.408z"/>
</g>
</svg>
